<svg width="202" height="225" viewBox="0 0 202 225" fill="none" xmlns="http://www.w3.org/2000/svg">
<g clip-path="url(#clip0_2472_8)">
<path d="M155.329 183.158C154.868 183.487 154.342 183.816 153.882 184.145C153.355 184.474 152.895 184.803 152.368 185.066C151.908 185.329 151.513 185.592 151.053 185.855C150.987 185.921 150.921 185.921 150.855 185.987C149.342 186.908 147.763 187.763 146.184 188.553C145.724 188.816 145.197 189.079 144.737 189.276C144.737 189.276 144.671 189.342 144.605 189.342L143.026 190.132C141.974 190.658 140.855 191.118 139.803 191.579C139.276 191.842 138.684 192.039 138.158 192.237C137.632 192.434 137.039 192.697 136.513 192.895C135.987 193.092 135.395 193.355 134.868 193.553H134.803C134.276 193.75 133.684 193.947 133.158 194.145C131.974 194.539 130.724 194.934 129.539 195.329C129.145 195.461 128.684 195.592 128.289 195.724C127.039 196.118 125.789 196.447 124.539 196.711C124.079 196.842 123.618 196.908 123.092 197.039C121.908 197.303 120.658 197.566 119.474 197.829C119.211 197.895 119.013 197.895 118.75 197.961C118.355 198.026 117.895 198.092 117.5 198.158C116.908 198.224 116.382 198.355 115.789 198.421C115.526 198.487 115.263 198.487 115 198.553C114.671 198.618 114.276 198.684 113.882 198.684C112.829 198.816 111.711 198.947 110.658 199.079C110.329 199.145 109.934 199.145 109.605 199.211H109.539C109.079 199.276 108.618 199.276 108.158 199.342C107.697 199.408 107.237 199.408 106.776 199.408C106.513 199.408 106.184 199.474 105.921 199.474C105.395 199.474 104.934 199.539 104.474 199.539C103.816 199.539 103.224 199.605 102.566 199.605H99.2763C71.5132 199.211 46.579 187.434 28.75 168.75C28.75 168.75 28.75 168.684 28.6842 168.684C26.7105 166.908 28.4211 157.434 36.3816 151.447C46.3816 143.882 70.329 139.145 70.329 139.145C70.329 139.145 79.6053 137.632 114.013 144.803C134.145 149.013 149.474 155.132 158.026 171.711C159.803 175.132 161.579 180.395 155.329 183.158Z" fill="white"/>
<path d="M114.211 144.079C126.842 146.645 140.329 149.408 150.724 157.763C154.211 160.592 156.513 164.737 158.421 168.75C159.342 170.724 160.263 172.763 160.987 174.934C161.382 176.382 161.974 178.026 161.645 179.737C161.579 180.197 161.184 180.789 160.855 181.118C159.342 182.632 157.697 183.553 156.053 184.737C146.382 191.447 135.263 196.184 123.75 198.684C98.0922 204.276 70.329 199.934 47.7632 186.447C40.2632 181.908 33.3553 176.382 27.4343 169.868C26.7764 169.079 26.7764 167.763 26.7764 166.908C26.8422 164.934 27.3685 163.026 28.0264 161.25C29.6053 157.171 31.6448 153.092 35.1316 150.263C37.6316 148.553 40.329 147.105 43.0922 145.921C51.7764 142.237 60.9211 139.671 70.329 138.618C71.1185 138.553 71.25 139.671 70.4606 139.803C61.4474 141.645 52.5 144.408 44.1448 148.158C41.1185 149.671 37.8948 150.987 35.4606 153.355C33.1579 155.855 31.5132 158.947 30.1974 162.105C29.3422 164.013 28.75 167.039 29.0132 168.553C33.1579 173.487 38.0264 177.829 43.2895 181.579C72.1053 201.711 115.855 203.026 146.513 186.25C149.276 184.737 151.974 183.026 154.54 181.25C155.79 180.395 157.105 179.671 158.092 178.684C158.158 178.618 158.092 178.684 158.092 178.75C158.092 178.816 158.026 178.882 158.026 178.882C158.092 178.092 157.829 177.039 157.5 175.987C156.316 172.171 154.408 168.158 152.368 164.671C149.145 159.474 143.684 156.184 138.158 153.553C134.342 151.776 130.329 150.395 126.25 149.079C122.171 147.763 118.026 146.645 113.882 145.658C112.829 145.395 113.158 143.882 114.211 144.079Z" fill="black"/>
</g>
<g clip-path="url(#clip1_2472_8)">
<path d="M177.171 223.947H10.7894C10.7894 223.947 13.4868 196.841 23.75 175.197C27.5 167.302 28.75 155.723 36.1842 150.657C43.8157 145.46 60.0657 141.315 65.7236 140.657C68.8815 140.262 68.1578 139.999 70.3947 139.407C71.1184 141.381 78.421 160.723 95.921 167.828C110.987 173.947 119.934 169.868 121.316 163.091C122.171 158.749 119.474 151.644 118.092 149.341C117.303 148.684 116.776 147.697 116.513 146.71L115.987 144.539C117.171 144.276 118.289 143.947 119.474 143.618C120.066 143.749 120.724 143.684 121.25 144.012C126.776 147.039 143.421 151.315 152.105 160.46C155.526 164.012 160.855 176.644 161.71 184.868C164.145 207.434 177.171 223.947 177.171 223.947Z" fill="#1D3B67"/>
<path d="M178.093 224.342C128.751 224.474 59.4743 225.066 10.8559 224.868C10.2638 224.868 9.80327 224.342 9.86906 223.75C10.4612 219.079 11.2506 214.539 12.1717 209.934C14.6059 197.368 18.2901 185 23.8164 173.487C26.0533 168.092 27.1717 162.434 29.8691 157.171C31.448 154.013 33.8164 150.987 36.9743 149.21C42.0401 146.184 47.6322 144.276 53.2243 142.566C56.5796 141.579 60.0006 140.658 63.4217 140C65.1322 139.605 66.8428 139.671 68.4217 139.013C69.277 138.684 70.9217 137.697 71.448 138.947C76.2506 151.382 85.527 163.158 98.4875 167.566C105.198 170 116.843 172.039 120.264 163.816C121.316 160.724 120.33 157.368 119.409 154.276C118.882 152.697 118.224 151.053 117.435 149.737L117.632 149.934C116.448 148.947 115.79 147.368 115.593 145.921L115.264 144.605C115.132 144.079 115.461 143.553 115.987 143.421C117.172 143.224 118.356 142.829 119.54 142.5C120.198 142.5 121.251 142.632 122.106 143.092C129.343 146.447 137.566 148.882 144.474 153.092C148.356 155.395 152.303 158.092 154.803 161.974C159.409 169.671 162.369 178.421 163.224 187.303C165.066 200 170.198 212.171 177.566 222.632L177.83 222.96L177.961 223.092L178.027 223.158C178.027 223.158 178.027 223.092 178.093 223.289C178.159 223.684 178.159 224.145 178.093 224.342ZM176.316 223.487C176.185 223.684 176.185 224.145 176.316 224.342L176.185 224.145L175.922 223.816C171.777 217.5 168.356 210.724 165.856 203.684C163.882 198.487 162.435 193.092 161.645 187.566C161.382 185.592 161.053 182.96 160.593 181.053C159.08 174.737 156.645 168.421 153.159 162.96C152.04 161.184 150.395 159.803 148.751 158.487C143.553 154.539 137.435 152.105 131.382 149.737L125.198 147.434C123.159 146.645 120.724 145.789 119.474 144.539H120.001C118.816 144.934 117.632 145.263 116.448 145.526L117.172 144.342L117.501 145.658C117.764 146.842 118.027 147.895 118.948 148.684L119.145 148.882C120.922 152.105 121.974 155.46 122.501 159.079C123.619 165.329 119.672 170.263 113.619 171.447C105.264 173.092 95.2638 169.474 88.3559 164.803C79.6717 158.684 73.4217 149.605 69.6059 139.803L70.7901 140.395C70.198 140.592 69.8033 140.789 69.2112 141.053C68.6191 141.382 67.8954 141.579 67.2375 141.71L67.3691 142.5C66.1191 142.632 65.1322 142.697 63.948 142.96C60.5927 143.487 57.2375 144.276 53.948 145.197C49.5401 146.382 45.198 147.829 41.1191 149.737C39.0796 150.724 37.1059 151.776 35.5927 153.158C34.0138 154.539 32.7638 156.382 31.7112 158.355C28.6191 164.342 27.1059 171.513 23.948 177.566C17.3691 192.237 13.6849 208.224 11.9085 224.21L10.9217 223.158C58.6849 222.96 127.764 223.224 176.316 223.487Z" fill="black"/>
<path d="M123.751 180.921C121.448 181.579 113.422 173.224 111.777 171.776C110.264 173.487 99.6059 185.526 94.3428 184.737C88.5533 183.882 73.7507 173.947 66.2507 158.355C62.1059 149.803 61.9744 144.605 62.4349 141.776C62.6323 140.461 63.027 139.605 63.2244 139.145C63.8823 137.632 68.6191 131.776 69.8033 131.842V131.908C70.3954 138.224 72.4349 144.342 75.8559 149.671C80.0665 156.184 86.7112 164.013 95.9875 167.763C111.053 173.882 118.882 167.829 120.198 161.053C121.053 156.711 119.54 151.579 118.159 149.276C117.369 148.618 116.843 147.632 116.58 146.645L116.053 144.474C117.238 144.211 118.356 143.882 119.54 143.553C119.869 143.421 120.264 143.355 120.593 143.224C120.79 143.487 121.053 143.75 121.251 144.013C124.014 147.171 126.909 151.513 128.488 158.882C131.119 170.658 126.316 180.132 123.751 180.921Z" fill="black"/>
<path d="M111.58 171.382C111.58 171.382 116.382 174.145 116.251 176.447C116.119 178.75 117.501 186.053 117.501 186.053" stroke="black" stroke-width="3" stroke-miterlimit="10" stroke-linecap="round" stroke-linejoin="round"/>
<path d="M111.514 180.132C111.721 180.132 111.927 180.091 112.118 180.011C112.31 179.932 112.484 179.815 112.63 179.669C112.777 179.522 112.893 179.348 112.973 179.156C113.052 178.965 113.093 178.759 113.093 178.552C113.093 178.345 113.052 178.139 112.972 177.948C112.893 177.756 112.777 177.582 112.63 177.435C112.483 177.289 112.309 177.172 112.118 177.093C111.926 177.014 111.721 176.973 111.513 176.973C111.094 176.973 110.693 177.14 110.397 177.436C110.1 177.732 109.934 178.134 109.934 178.553C109.934 178.971 110.101 179.373 110.397 179.669C110.693 179.965 111.095 180.132 111.514 180.132ZM112.039 186.316C112.458 186.316 112.86 186.149 113.156 185.853C113.452 185.557 113.618 185.156 113.618 184.737C113.618 184.318 113.452 183.916 113.156 183.62C112.86 183.324 112.458 183.158 112.039 183.158C111.621 183.158 111.219 183.324 110.923 183.62C110.627 183.916 110.461 184.318 110.461 184.737C110.461 185.156 110.627 185.557 110.923 185.853C111.219 186.149 111.621 186.316 112.039 186.316Z" fill="black"/>
<path d="M43.3553 223.947L40.3948 199.539M158.29 191.25C158.29 191.25 156.317 196.053 156.909 200.855C157.501 205.658 159.211 212.697 156.777 223.947" stroke="#111111" stroke-width="3" stroke-miterlimit="10" stroke-linecap="round" stroke-linejoin="round"/>
<path d="M69.8027 131.842C69.8027 131.842 91.0527 125.263 120.658 143.158C120.658 143.158 128.816 165.132 123.75 168.487C118.684 171.842 102.763 172.171 91.6448 168.487C80.4606 164.868 66.1185 146.776 69.8027 131.842Z" fill="black"/>
</g>
<path d="M120.394 161.579C119.013 168.355 110.065 172.434 94.9994 166.316C79.3415 160 72.5651 144.934 70.8546 140.46C80.1309 123.092 73.6836 111.053 73.6836 111.053C95.0651 109.21 113.749 134.21 113.749 134.21L116.644 146.579C116.907 147.632 117.434 148.553 118.223 149.21C119.605 151.645 121.249 157.237 120.394 161.579Z" fill="white"/>
<path d="M70.5263 140.658C71.7763 138.75 72.5658 136.513 73.0921 134.342C74.0789 129.803 74.4079 125.197 74.4737 120.592V118.882C74.2763 117.171 73.6842 115.395 73.0263 113.816C72.171 111.711 75.2631 110.395 76.25 112.5C76.3815 112.763 76.3815 113.224 76.3815 113.487C76.5789 122.434 76.9737 133.947 71.3158 141.382C70.921 141.776 70.1315 141.184 70.5263 140.658ZM114.473 134.079C115.46 134.671 115.789 135.461 115.92 136.25C116.315 137.829 116.184 139.54 116.578 141.184C116.907 142.763 117.894 144.276 118.157 145.921C118.486 147.632 119.473 151.25 119.868 153.026C119.999 153.421 119.736 153.882 119.276 153.947C119.012 154.013 118.815 153.947 118.618 153.816C117.762 153.092 117.368 152.368 116.841 151.447C115.986 149.868 115.394 148.421 114.868 146.645C114.407 145.066 114.605 143.355 114.21 141.711C113.881 140.132 112.96 138.618 112.631 136.974C112.434 136.184 112.368 135.329 112.96 134.342C113.355 133.947 114.012 133.816 114.473 134.079Z" fill="black"/>
<path d="M119.211 151.447C106.645 150.789 96.3816 146.842 86.3816 129.013C94.8026 136.447 104.737 139.276 115.197 140.592L116.579 146.645C116.842 147.697 118.421 150.789 119.211 151.447Z" fill="black"/>
<path d="M118.684 149.013C120.921 153.224 122.237 158.487 120.855 163.158C119.803 166.447 116.776 168.882 113.487 169.803C105.855 171.842 97.0394 168.618 90.2631 165C81.9079 160.329 75.7236 152.5 71.7763 143.947C71.5131 143.29 72.4342 142.763 72.8289 143.421C74.2105 146.184 75.7894 148.882 77.5658 151.316C79.3421 153.816 81.3815 156.118 83.6842 158.158C90.3947 164.211 99.4736 167.961 108.553 167.961C117.895 167.697 121.447 162.763 119.276 153.684C118.947 152.237 118.421 150.724 117.697 149.474C117.303 148.947 118.289 148.355 118.684 149.013Z" fill="black"/>
<path d="M144.145 70C145.329 75.5263 144.408 79.2105 143.882 94.4737C143.355 109.474 139.013 130.658 133.684 135.987C129.605 140 116.513 143.158 104.868 140.197C98.9474 138.684 93.9474 135.263 89.8685 132.829C84.7369 129.737 80.2632 120.197 76.579 114.079C73.6843 109.276 73.9474 115.066 70.1974 110.921C65 105.263 58.75 93.8816 61.8422 73.75C66.8422 41.1184 92.6974 37.3026 111.842 40.9211C131.118 44.5395 140.987 55.4605 144.145 70Z" fill="white"/>
<path d="M73.4868 116.711C71.9737 114.211 70 111.974 68.2237 109.605C65.5921 105.987 63.6184 101.842 62.3026 97.5658C56.5789 79.2763 60.0658 55.3289 77.3684 44.5395C93.0921 34.5395 123.618 38.1579 136.382 51.8421C141.184 56.7763 144.276 63.2237 145.592 69.9342C145.658 70.3289 145.855 71.0526 145.921 71.4474C145.987 71.7763 146.184 72.1711 146.118 72.5658C145.987 74.0132 145.724 75.4605 145.592 76.9079C144.605 85.6579 144.868 94.6053 143.75 103.355C142.763 112.566 141.447 121.776 138.684 130.658C137.829 133.355 136.184 135.789 134.013 137.566C129.145 141.645 122.763 143.026 116.645 143.289C104.408 143.882 91.9737 139.539 84.8684 129.211C84.6053 128.816 85.1316 128.355 85.4605 128.75C91.3816 135.132 99.4079 139.211 107.961 140.132C117.434 141.25 131.711 140.395 135.855 130.263C140.658 115.921 143.158 100.724 143.421 85.6579C143.421 81.9737 143.224 78.2895 143.224 74.5395C143.224 74.0789 143.289 73.0263 143.289 72.5658C143.289 72.6316 143.289 72.6316 143.289 72.5658C142.763 71.25 142.566 69.8026 142.171 68.4868C140.724 63.0263 138.092 57.8289 134.342 53.6842C121.908 39.7368 94.2105 36.25 78.6842 46.7105C66.3816 54.8684 63.0921 70.5263 62.2368 84.3421C61.5132 94.6711 64.5395 104.803 72.3684 111.908L75.4605 115.132C76.7763 116.579 74.5395 118.289 73.4868 116.711Z" fill="black"/>
<path d="M81.2501 95.7895C81.2501 95.7895 79.2106 85.921 69.6053 87.1052C61.3158 88.1579 58.4211 108.026 77.2369 113.553" fill="white"/>
<path d="M76.3816 104.934C74.8685 104.079 73.8158 102.632 73.75 100.855C73.8158 99.5395 74.0132 98.0263 73.6843 96.7105C73.4869 95.4605 72.1711 95.1316 71.1843 95.1974C70.1316 95.3947 69.4737 96.7105 69.2764 97.7632C69.2764 97.829 69.2106 98.0263 69.2106 98.0921C69.1448 98.4211 68.6185 98.4211 68.4869 98.0921C67.6316 95.5263 69.5395 92.6974 72.3027 93.0263C76.1843 93.2895 76.7106 97.3684 75.9869 100.461C75.5922 101.776 76.1185 102.961 76.8422 104.079L76.9737 104.276C77.3027 104.671 76.7764 105.197 76.3816 104.934ZM129.014 88.8158C130.001 93.4869 131.843 97.829 134.145 101.908C136.185 106.908 130.922 111.645 126.251 111.447C125.724 111.447 125.659 110.724 126.119 110.592C129.08 109.671 131.777 107.697 132.238 104.671C132.435 103.75 132.172 102.961 131.711 102.171C129.54 98.0921 128.224 93.4211 128.553 88.8158C128.553 88.4869 129.014 88.4869 129.014 88.8158Z" fill="black"/>
<path d="M80.921 95.8552C79.4079 91.9736 76.1184 88.2894 71.7105 88.3552C71.3157 88.2894 70.6579 88.421 70.2631 88.421C69.1447 88.4868 68.2236 88.8815 67.3684 89.671C63.1579 93.8815 63.8815 101.316 67.3026 105.987C68.4868 107.632 70 109.079 71.7105 110.263C73.421 111.447 75.3289 112.368 77.3684 113.158C77.8289 113.289 77.6315 114.013 77.171 113.947C72.7631 113.026 68.5526 110.855 65.6579 107.237C61.1842 101.842 60.2631 92.8289 65.5921 87.5657C66.7763 86.5131 68.421 85.7236 70.0657 85.7236C70.5921 85.7236 71.3815 85.5921 71.9079 85.7236C74.671 85.8552 77.3026 87.2368 79.0131 89.4078C80.5263 91.25 81.3815 93.4868 81.6447 95.7236C81.6447 96.1184 81.0526 96.25 80.921 95.8552Z" fill="black"/>
<path d="M149.474 59.9342C153.947 56.0527 160.526 50.1974 153.75 42.0395C146.974 33.8816 134.474 37.0395 134.474 37.0395C134.474 37.0395 137.105 29.5395 129.803 26.8421C120.987 23.6185 95.9868 33.3553 95.9868 33.3553C94.1447 33.2895 92.3684 33.2237 90.7237 33.2237C69.1447 32.7632 62.8947 46.3816 62.6316 58.6185C62.6316 58.6185 55.3289 61.0527 53.4868 72.6974C52.8947 76.4474 52.3026 81.25 53.75 87.0395C57.6316 102.829 68.0921 113.816 74.7368 119.408C77.2368 117.566 72.8289 115 73.1579 111.974C58.8816 105 61.9737 88.0921 69.6052 87.1053C75.4605 86.3816 78.5526 89.8027 80 92.5658C80.5921 93.3553 72.6974 49.3421 118.224 63.75C127.237 66.579 136.513 69.079 142.829 64.5395C143.553 65.9211 144.013 67.5658 144.145 70C144.145 70 155.132 65.7237 153.487 61.25C152.961 59.7369 149.474 59.9342 149.474 59.9342Z" fill="black"/>
<path d="M104.474 95.5264C102.895 95.4606 101.711 94.1448 101.842 92.5658L101.908 90.7237C101.974 89.1448 103.29 87.9606 104.868 88.0921C106.447 88.1579 107.632 89.4737 107.5 91.0527L107.434 92.8948C107.368 94.4079 106.053 95.5921 104.474 95.5264ZM132.171 96.5132C130.724 96.4474 129.605 95.1974 129.671 93.75L129.737 92.0395C129.803 90.5921 131.053 89.4737 132.5 89.5395C133.947 89.6053 135.066 90.8553 135 92.3027L134.934 94.0132C134.868 95.4606 133.618 96.579 132.171 96.5132Z" fill="black"/>
<path d="M110.395 91.9737C108.224 90.5264 105.855 89.5395 103.224 90.0658C102.368 90.1974 101.513 90.4606 100.987 91.0527C100.789 91.3158 100.329 91.25 100.329 90.8553C100.395 89.5395 101.513 88.6842 102.566 88.1579C104.605 87.1053 107.434 87.3027 109.276 88.6842C109.934 89.079 112.171 91.5132 110.987 92.0395C110.724 92.1711 110.592 92.1053 110.395 91.9737ZM129.211 92.3027C129.211 89.5395 132.632 88.5527 134.737 89.5395C135.921 90.0658 136.776 91.1185 137.105 92.3685C137.237 92.7632 136.645 93.0921 136.382 92.7632C135.263 91.4474 133.355 90.7895 131.842 91.579C131.382 91.8421 131.316 92.0395 131.184 92.3027C131.184 93.6185 129.276 93.5527 129.211 92.3027ZM113.553 81.1185C114.934 81.579 116.316 80.329 116.053 78.8158C115.921 78.0264 115.592 77.2369 114.934 76.6448C112.961 74.8685 104.803 73.2895 99.8684 75.5921C95.5263 77.6974 107.237 79.0132 113.553 81.1185ZM133.224 82.1711C132.106 82.5658 130.922 81.3816 131.119 80C131.185 79.2764 131.448 78.5527 131.974 78.0264C133.553 76.4474 138.948 75.1974 142.369 77.6316C145.33 79.6711 138.356 80.2632 133.224 82.1711Z" fill="black"/>
<path d="M124.605 117.697C123.487 118.487 121.842 117.829 120.658 118.355C119.803 118.618 118.421 119.803 116.447 119.671C114.868 119.539 114.079 118.75 112.763 118.158C111.382 117.697 109.934 116.842 109.013 115.724C108.816 115.526 108.816 115.263 109.013 115.066C109.276 114.803 109.539 115 109.803 115.132C110.395 115.46 110.855 115.724 111.316 115.855C111.776 115.987 112.237 115.855 112.961 115.855C113.684 115.789 114.737 116.118 115.395 116.645C115.855 116.974 116.382 117.171 116.776 117.237C117.829 117.434 119.145 116.579 120.263 116.447C121.053 116.316 121.908 116.382 122.566 116.579C123.224 116.776 123.684 116.908 124.211 116.776C124.803 116.645 125.132 117.434 124.605 117.697Z" fill="black"/>
<path d="M115.132 103.684C112.106 103.75 102.764 103.816 99.8691 103.882C94.8691 103.947 91.1191 99.6052 91.5797 94.671C91.6454 93.0263 91.5797 90.7237 91.6454 89.0789C91.777 84.8026 95.5928 81.1842 99.8691 81.3158L110.988 81.4474C111.843 81.4474 114.277 81.5131 115.132 81.5131C118.685 81.4474 122.04 84.0789 122.83 87.5658C123.093 88.5526 123.027 89.6052 123.027 90.4605V96.0526C122.961 100.197 119.277 103.75 115.132 103.684ZM115.132 102.237C118.553 102.368 121.711 99.4079 121.777 95.9868C121.843 94.2105 121.777 92.3026 121.777 90.4605C122.172 86.4473 119.145 82.7631 115.067 82.8947C112.238 82.9605 102.764 83.0263 99.8033 83.0921C96.2507 83.0921 93.2244 86.3158 93.4875 89.8684V91.9737C93.5533 93.421 93.356 95.921 93.6849 97.2368C94.3428 100 96.9744 102.105 99.8033 102.105H101.185C103.093 102.105 113.159 102.237 115.132 102.237ZM141.645 83.2237L136.447 83.2895C135 83.3552 133.29 83.0921 132.04 83.9473C130.855 84.7368 130.329 86.1842 130.395 87.5658C130.395 89.2763 130.395 91.0526 130.329 92.7631L130.263 92.5C131.184 95.7237 132.434 98.8158 134.342 101.513L133.684 101.118C134.211 101.25 135.132 101.25 135.658 101.25C137.632 101.316 139.934 101.447 141.908 101.447C143.75 101.447 145.526 100.066 145.921 98.2237C146.053 97.6974 146.053 96.7763 146.053 96.25C146.053 93.421 146.118 90.6579 145.987 87.8289C146.118 85.3289 144.211 83.0921 141.645 83.2237ZM141.645 81.25C145.132 81.25 147.566 84.6052 146.974 87.8947C146.842 90.7237 146.908 93.4868 146.908 96.3158C147.237 99.6052 145.263 102.566 141.842 102.829C140.395 102.895 139.013 102.895 137.632 102.961C136.908 102.961 135.132 103.092 134.474 103.092C134.145 103.158 133.618 103.092 133.29 103.092C133.026 103.092 132.763 102.895 132.632 102.697C130.592 99.671 129.145 96.3158 128.29 92.8289C128.29 90.5921 128.092 88.3552 128.29 86.1184C128.684 83.4868 131.053 81.25 133.75 81.1842C135.592 81.1184 139.803 81.25 141.645 81.25Z" fill="black"/>
<path d="M122.303 87.3026C124.079 86.5132 126.053 86.1842 128.026 86.3158C128.684 86.3816 129.342 86.5789 129.934 87.1053L130.789 87.829C131.645 88.5526 130.592 89.8026 129.737 89.0789C128.684 88.1579 127.434 88.2895 126.184 88.3553C124.934 88.4868 123.75 88.75 122.566 89.2105C121.447 89.6711 120.724 88.0263 121.776 87.5L122.303 87.3026ZM92.6973 89.6711C92.2368 90.7237 91.7105 90.8553 90.8552 90.7895L88.9473 90.8553C85.1315 90.8553 81.25 90.7895 77.4342 90.1974C76.1184 90.1316 76.0526 88.2895 77.3684 88.2237L92.6315 87.6974C93.0921 87.6974 93.421 88.1579 93.2236 88.5526L92.6973 89.6711Z" fill="black"/>
<defs>
<clipPath id="clip0_2472_8">
<rect width="201.316" height="201.316" rx="20" fill="white"/>
</clipPath>
<clipPath id="clip1_2472_8">
<rect width="201.316" height="225" rx="20" fill="white"/>
</clipPath>
</defs>
</svg>
